{
  "title": "The.Secret.Life.of.Pets.2016.720P.HDTS.x264.HQ.Hive-CM8",
  "uid": 15373454,
  "size": 2831308444,
  "categoryP": "video",
  "categoryS": "movies",
  "magnet": "?xt=urn:btih:8841b021fd5170d79a47830cec900da37b13bf93&amp;dn=The.Secret.Life.of.Pets.2016.720P.HDTS.x264.HQ.Hive-CM8&amp;tr=udp%3A%2F%2Ftracker.leechers-paradise.org%3A6969&amp;tr=udp%3A%2F%2Fzer0day.ch%3A1337&amp;tr=udp%3A%2F%2Fopen.demonii.com%3A1337&amp;tr=udp%3A%2F%2Ftracker.coppersurfer.tk%3A6969&amp;tr=udp%3A%2F%2Fexodus.desync.com%3A6969",
  "seeders": 335,
  "leechers": 77,
  "uploader": "xxxlavalxxx",
  "files": 4,
  "time": 1469168404,
  "description": "http://extraimago.com/image/avlf\r\n \nhttp://www.imdb.com/title/tt2709768/\r\n\r\n\r\nA terrier named Max's quiet life is upended when his owner takes in Duke, a stray, who Max instantly dislikes.\r\n\r\nDirectors: Yarrow Cheney, Chris Renaud\r\nWriters: Cinco Paul, Ken Daurio\r\nStars: Louis C.K., Eric Stonestreet, Kevin Hart\r\nGenres: Animation | Comedy | Family\r\nCountry: Japan | USA\r\nLanguage: English\r\n\r\n\r\nThe.Secret.Life.of.Pets.2016.720P.HDTS.x264.HQ.Hive-CM8\r\n\r\nThx Hive\r\n\r\nCM8 Doing It Right The First Time \r\n\r\nSources:\r\n\r\nVideo: 1080p HDCAM (cpg/daddy) \r\nAudio: English Direct Line  (cpg/daddy)\r\nthx\r\n\r\n\r\nNotes:\r\nyep am still around if something needs to be fixed, and this one needed lots of work\r\nCam quality was damned perfect technically\r\nfirst mins of the minion intro was oos from 12 up to 45 seconds since they were merged with different framerates,\r\n5mins in theire was a 2minute video looping, wtf\r\nboth videos suffered from different interlace problems.\r\nvideo was skewed\r\n\r\nEncode:\r\nfixed perspective\r\ndownsized to 720p -  looks waybetter and more crisp\r\nremoved the interlaced frames from both videos\r\nremoved the video looping\r\nfixed framerate for the intro video\r\nfixed brightness,contrast,rgb relation,added sharpness\r\nresynced audio\r\ncleaned audio\r\nremoved cinavia\r\n\r\nQuality is tested and optimized to look perfect on a 75&quot; 4K TV.\r\n\r\ngot very nice and will do me till retail\r\nenjoy\r\n\r\n\r\n\r\nVideo: 1280x672 @bitrate 4000-8000\r\nAudio: English Direct Line AC3 2.0 Stereo\r\nSample: yes included\r\n\r\n \nhttp://www.imdb.com/title/tt2709768\r\n\r\n\r\nGeneral\r\nComplete name                  : The.Secret.Life.of.Pets.2016.720P.HDTS.x264.HQ.Hive-CM8.mkv\r\nFormat                         : Matroska\r\nFormat version                 : Version 2\r\nFile size                      : 2.58 GiB\r\nDuration                       : 1h 23mn\r\nOverall bit rate mode          : Variable\r\nOverall bit rate               : 4 428 Kbps\r\nEncoded date                   : UTC 2016-07-21 23:09:37\r\nWriting application            : mkvmerge v5.6.0 ('Kenya Kane') built on May 27 2012 16:44:04\r\nWriting library                : libebml v1.2.3 + libmatroska v1.3.0\r\n\r\nVideo\r\nID                             : 1\r\nFormat                         : AVC\r\nFormat/Info                    : Advanced Video Codec\r\nFormat profile                 :   \r\nFormat settings, CABAC         : Yes\r\nFormat settings, ReFrames      : 4 frames\r\nFormat settings, GOP           : M=4, N=33\r\nMuxing mode                    : Header stripping\r\nCodec ID                       : V_MPEG4/ISO/AVC\r\nDuration                       : 1h 23mn\r\nBit rate mode                  : Variable\r\nBit rate                       : 3 892 Kbps\r\nMaximum bit rate               : 8 000 Kbps\r\nWidth                          : 1 280 pixels\r\nHeight                         : 672 pixels\r\nDisplay aspect ratio           : 1.905\r\nFrame rate mode                : Constant\r\nFrame rate                     : 25.000 fps\r\nStandard                       : PAL\r\nColor space                    : YUV\r\nChroma subsampling             : 4:2:0\r\nBit depth                      : 8 bits\r\nScan type                      : Progressive\r\nBits/(Pixel*Frame)             : 0.181\r\nStream size                    : 2.26 GiB (88%)\r\nLanguage                       : English\r\nDefault                        : Yes\r\nForced                         : No\r\nColor primaries                : BT.709\r\nTransfer characteristics       : BT.709\r\nMatrix coefficients            : BT.709\r\nColor range                    : Limited\r\n\r\nAudio\r\nID                             : 2\r\nFormat                         : AC-3\r\nFormat/Info                    : Audio Coding 3\r\nMode extension                 : CM (complete main)\r\nFormat settings, Endianness    : Big\r\nMuxing mode                    : Header stripping\r\nCodec ID                       : A_AC3\r\nDuration                       : 1h 23mn\r\nBit rate mode                  : Constant\r\nBit rate                       : 448 Kbps\r\nChannel(s)                     : 2 channels\r\nChannel positions              : Front: L R\r\nSampling rate                  : 48.0 KHz\r\nBit depth                      : 16 bits\r\nCompression mode               : Lossy\r\nStream size                    : 267 MiB (10%)\r\nLanguage                       : English\r\nDefault                        : Yes\r\nForced                         : No\r\n\r\n \nhttp://extraimago.com/image/aAQL \nhttp://extraimago.com/image/aAQQ \nhttp://extraimago.com/image/aAQR \nhttp://extraimago.com/image/aAQm \nhttp://extraimago.com/image/aAQi \nhttp://extraimago.com/image/aAQl \nhttp://extraimago.com/image/aAQI \nhttp://extraimago.com/image/aAQd \nhttp://extraimago.com/image/aAQh",
  "parsed": {
    "xt": "urn:btih:8841b021fd5170d79a47830cec900da37b13bf93",
    "dn": "The.Secret.Life.of.Pets.2016.720P.HDTS.x264.HQ.Hive-CM8",
    "tr": [
      "udp://exodus.desync.com:6969",
      "udp://open.demonii.com:1337",
      "udp://tracker.coppersurfer.tk:6969",
      "udp://tracker.leechers-paradise.org:6969",
      "udp://zer0day.ch:1337"
    ],
    "infoHash": "8841b021fd5170d79a47830cec900da37b13bf93",
    "infoHashBuffer": {
      "type": "Buffer",
      "data": [
        136,
        65,
        176,
        33,
        253,
        81,
        112,
        215,
        154,
        71,
        131,
        12,
        236,
        144,
        13,
        163,
        123,
        19,
        191,
        147
      ]
    },
    "name": "The.Secret.Life.of.Pets.2016.720P.HDTS.x264.HQ.Hive-CM8",
    "announce": [
      "udp://exodus.desync.com:6969",
      "udp://open.demonii.com:1337",
      "udp://tracker.coppersurfer.tk:6969",
      "udp://tracker.leechers-paradise.org:6969",
      "udp://zer0day.ch:1337"
    ],
    "urlList": []
  },
  "previous": 412,
  "peers": 100,
  "last_updated": "2016-12-25T06:53:48.099Z"
}